# xmcd
#
# Track frame offsets: 
#        150
#        12800
#        34323
#        53920
#        70212
#        85187
#        100509
#        119065
#        134875
#        146546
#        164702
#        179913
#        196208
#        209948
#        224819
#        242794
#        258265
#        278071
#
# Disc length: 4085 seconds
#
# Revision: 1
# Processed by: cddbd v1.5.2PL0 Copyright (c) Steve Scherf et al.
# Submitted via: ExactAudioCopy v0.95b4
#
DISCID=2a0ff312
DTITLE=Dakota Staton - Congratulations
DYEAR=1999
DGENRE=Vocal
TTITLE0=Let Me Off Uptown
TTITLE1=Congratulations To Someone
TTITLE2=Let It Be Me
TTITLE3=A House Is Not A Home
TTITLE4=Candy
TTITLE5=Moonglow
TTITLE6=Blues For Tasty
TTITLE7=Losin Battle
TTITLE8=Deep In A Dream
TTITLE9=Confessin The Blues
TTITLE10=Between 18Th And 19Th On Chestnut Street
TTITLE11=Why Dont You Think Things Over
TTITLE12=A Nightingale Sang In Berkeley Square
TTITLE13=Porgy
TTITLE14=Country Man
TTITLE15=Girl Talk
TTITLE16=Heartbreak
TTITLE17=I Love More Than Youll Ever Know
EXTD=
EXTT0=
EXTT1=
EXTT2=
EXTT3=
EXTT4=
EXTT5=
EXTT6=
EXTT7=
EXTT8=
EXTT9=
EXTT10=
EXTT11=
EXTT12=
EXTT13=
EXTT14=
EXTT15=
EXTT16=
EXTT17=
PLAYORDER=
